# xmcd
#
# Track frame offsets: 
#        150
#        13500
#        25485
#        38925
#        55217
#        67245
#        78142
#        95895
#        106610
#        122500
#
# Disc length: 1905 seconds
#
# Revision: 3
# Processed by: cddbd v1.5.2PL0 Copyright (c) Steve Scherf et al.
# Submitted via: ExactAudioCopy v0.95b4
#
DISCID=7d076f0a
DTITLE=Dr. Feelgood - Mad Man Blues
DYEAR=1985
DGENRE=R&B
TTITLE0=Dust My Broom
TTITLE1=Something You Got
TTITLE2=Dimples
TTITLE3=Living On The Highway
TTITLE4=Tore Down
TTITLE5=Mad Man Blues
TTITLE6=I've Got News For You
TTITLE7=My Babe
TTITLE8=Can't Find The Lady
TTITLE9=Rock Me Baby
EXTD=YEAR: 1981
EXTT0=
EXTT1=
EXTT2=
EXTT3=
EXTT4=
EXTT5=
EXTT6=
EXTT7=
EXTT8=
EXTT9=
PLAYORDER=
